<svg viewBox="0 0 58 58" xmlns="http://www.w3.org/2000/svg">
  <defs>
    <linearGradient x1="18.8903412%" y1="57.4188453%" x2="79.5612958%" y2="42.9503596%" id="linearGradient-1">
      <stop stop-color="#FF5700" offset="0"/>
      <stop stop-color="#FF5700" stop-opacity="0.1" offset="0.8587"/>
      <stop stop-color="#FFFFFF" stop-opacity="0" offset="1"/>
    </linearGradient>
    <linearGradient x1="108.641982%" y1="54.9375522%" x2="14.9011049%" y2="46.3387575%" id="linearGradient-2">
      <stop stop-color="#FF5700" offset="0.4356"/>
      <stop stop-color="#FF5700" stop-opacity="0.5" offset="1"/>
    </linearGradient>
  </defs>
  <path d="M 38.43 1.578 C 23.31 -3.621 6.778 4.449 1.578 19.57 C -3.621 34.69 4.449 51.222 19.57 56.422 C 34.69 61.621 51.222 53.551 56.422 38.43 C 61.621 23.31 53.551 6.778 38.43 1.578 Z M 23.292 45.608 C 14.101 42.448 9.195 32.399 12.356 23.208 C 15.517 14.017 25.565 9.112 34.756 12.272 C 43.947 15.433 48.853 25.482 45.692 34.673 C 42.531 43.863 32.482 48.769 23.292 45.608 Z" fill="url(#linearGradient-1)"/>
  <path d="M 52.266 27.562 C 49.203 27.077 46.324 29.156 45.837 32.205 C 44.328 41.644 35.388 48.101 25.908 46.599 C 16.428 45.097 9.942 36.196 11.451 26.757 L 0.359 25 C -2.123 40.528 8.546 55.172 24.143 57.643 C 39.739 60.114 54.447 49.491 56.929 33.963 C 57.417 30.913 55.329 28.048 52.266 27.562 Z" fill="url(#linearGradient-2)"/>
  <circle fill="#005193" cx="48.5" cy="16.5" r="5.5"/>
</svg>